<svg xmlns="http://www.w3.org/2000/svg" style="display: none;">

    <symbol id ="eliminar" viewBox="0 0 24 24" fill="none" xmlns="http://www.w3.org/2000/svg">
        <g id="SVGRepo_bgCarrier" stroke-width="0" />
        <g id="SVGRepo_tracerCarrier" stroke-linecap="round" stroke-linejoin="round" />
        <g id="SVGRepo_iconCarrier">
            <path
                d="M6 7V18C6 19.1046 6.89543 20 8 20H16C17.1046 20 18 19.1046 18 18V7M6 7H5M6 7H8M18 7H19M18 7H16M10 11V16M14 11V16M8 7V5C8 3.89543 8.89543 3 10 3H14C15.1046 3 16 3.89543 16 5V7M8 7H16"
                stroke="#ffffff" stroke-width="2" stroke-linecap="round" stroke-linejoin="round" />
        </g>
    </symbol>

    <symbol id="editar" viewBox="0 0 24 24" fill="none" xmlns="http://www.w3.org/2000/svg">
        <path fill-rule="evenodd" clip-rule="evenodd"
            d="M21.1213 2.70705C19.9497 1.53548 18.0503 1.53547 16.8787 2.70705L15.1989 4.38685L7.29289 12.2928C7.16473 12.421 7.07382 12.5816 7.02986 12.7574L6.02986 16.7574C5.94466 17.0982 6.04451 17.4587 6.29289 17.707C6.54127 17.9554 6.90176 18.0553 7.24254 17.9701L11.2425 16.9701C11.4184 16.9261 11.5789 16.8352 11.7071 16.707L19.5556 8.85857L21.2929 7.12126C22.4645 5.94969 22.4645 4.05019 21.2929 2.87862L21.1213 2.70705ZM18.2929 4.12126C18.6834 3.73074 19.3166 3.73074 19.7071 4.12126L19.8787 4.29283C20.2692 4.68336 20.2692 5.31653 19.8787 5.70705L18.8622 6.72357L17.3068 5.10738L18.2929 4.12126ZM15.8923 6.52185L17.4477 8.13804L10.4888 15.097L8.37437 15.6256L8.90296 13.5112L15.8923 6.52185ZM4 7.99994C4 7.44766 4.44772 6.99994 5 6.99994H10C10.5523 6.99994 11 6.55223 11 5.99994C11 5.44766 10.5523 4.99994 10 4.99994H5C3.34315 4.99994 2 6.34309 2 7.99994V18.9999C2 20.6568 3.34315 21.9999 5 21.9999H16C17.6569 21.9999 19 20.6568 19 18.9999V13.9999C19 13.4477 18.5523 12.9999 18 12.9999C17.4477 12.9999 17 13.4477 17 13.9999V18.9999C17 19.5522 16.5523 19.9999 16 19.9999H5C4.44772 19.9999 4 19.5522 4 18.9999V7.99994Z"
            fill="#ffffff" />
    </symbol>

    <symbol id="agregar" viewBox="0 0 24 24" fill="none" xmlns="http://www.w3.org/2000/svg" stroke="#ffffff">
        <g id="SVGRepo_bgCarrier" stroke-width="0" />
        <g id="SVGRepo_tracerCarrier" stroke-linecap="round" stroke-linejoin="round" />
        <g id="SVGRepo_iconCarrier">
            <path d="M7 12L12 12M12 12L17 12M12 12V7M12 12L12 17" stroke="#ffffff" stroke-width="2"
                stroke-linecap="round" stroke-linejoin="round" />
            <circle cx="12" cy="12" r="9" stroke="#ffffff" stroke-width="2" stroke-linecap="round"
                stroke-linejoin="round" />
        </g>
    </symbol>

    <symbol id="permisos" viewBox="0 0 24 24" fill="none" xmlns="http://www.w3.org/2000/svg">
        <path fill-rule="evenodd" clip-rule="evenodd"
            d="M12.4472 1.10557C12.1657 0.964809 11.8343 0.964809 11.5528 1.10557L3.55279 5.10557C3.214 5.27496 3 5.62123 3 6V12C3 14.6622 3.86054 16.8913 5.40294 18.7161C6.92926 20.5218 9.08471 21.8878 11.6214 22.9255C11.864 23.0248 12.136 23.0248 12.3786 22.9255C14.9153 21.8878 17.0707 20.5218 18.5971 18.7161C20.1395 16.8913 21 14.6622 21 12V6C21 5.62123 20.786 5.27496 20.4472 5.10557L12.4472 1.10557ZM5 12V6.61803L12 3.11803L19 6.61803V12C19 14.1925 18.305 15.9635 17.0696 17.425C15.8861 18.8252 14.1721 19.9803 12 20.9156C9.82786 19.9803 8.11391 18.8252 6.93039 17.425C5.69502 15.9635 5 14.1925 5 12ZM16.7572 9.65323C17.1179 9.23507 17.0714 8.60361 16.6532 8.24284C16.2351 7.88207 15.6036 7.9286 15.2428 8.34677L10.7627 13.5396L8.70022 11.5168C8.30592 11.1301 7.67279 11.1362 7.28607 11.5305C6.89935 11.9248 6.90549 12.5579 7.29978 12.9446L10.1233 15.7139C10.3206 15.9074 10.5891 16.0106 10.8651 15.9991C11.1412 15.9876 11.4002 15.8624 11.5807 15.6532L16.7572 9.65323Z"
            fill="#fff" />
    </symbol>

    <symbol id="ver" viewBox="0 0 24 24" fill="none" xmlns="http://www.w3.org/2000/svg">
        <path
            d="M15.0007 12C15.0007 13.6569 13.6576 15 12.0007 15C10.3439 15 9.00073 13.6569 9.00073 12C9.00073 10.3431 10.3439 9 12.0007 9C13.6576 9 15.0007 10.3431 15.0007 12Z"
            stroke="#fff" stroke-width="2" stroke-linecap="round" stroke-linejoin="round" />
        <path
            d="M12.0012 5C7.52354 5 3.73326 7.94288 2.45898 12C3.73324 16.0571 7.52354 19 12.0012 19C16.4788 19 20.2691 16.0571 21.5434 12C20.2691 7.94291 16.4788 5 12.0012 5Z"
            stroke="#fff" stroke-width="2" stroke-linecap="round" stroke-linejoin="round" />
    </symbol>

    <symbol id="autorizados" viewBox="0 0 512 512" xml:space="preserve">
        <g>
            <path class="st0" d="M48.335,490.794c0.016-19.684,4.754-35.814,12.292-49.534c11.288-20.533,29.242-35.692,47.474-46.686
                                  c18.217-10.994,36.453-17.692,47.818-21.697c8.954-3.168,19.354-7.755,28.211-13.902c4.429-3.093,8.506-6.577,11.782-10.871
                                  c3.234-4.241,5.773-9.623,5.777-15.825c0-9.149,0-20.579,0-36.258v-0.505l-0.054-0.506c-0.532-4.9-2.48-8.766-4.444-12.096
                                  c-3.013-5.023-6.4-9.394-9.497-15.059c-3.086-5.643-5.96-12.456-7.667-22.049l-0.992-5.604l-5.359-1.914
                                  c-2.45-0.88-4.203-1.73-5.68-2.756c-2.174-1.546-4.188-3.613-6.744-8.368c-2.519-4.723-5.287-11.996-8.323-22.669
                                  c-1.305-4.555-1.741-8-1.741-10.442c0.076-4.196,1.006-5.183,1.515-5.819c0.544-0.612,1.512-1.079,2.588-1.317l8.521-1.906
                                  l-0.915-8.682c-2.01-19.048-4.792-46.532-4.792-73.734c-0.008-18.382,1.297-36.626,4.777-51.685
                                  c2.886-12.717,7.415-22.822,13.049-29.253c9.053,2.066,17.436,2.817,25.268,2.81c13.815-0.03,25.88-1.884,39.167-1.853h0.314
                                  l0.333-0.015c4.98-0.306,9.436-0.452,13.435-0.452c12.755,0.007,20.705,1.462,27.16,3.95c6.446,2.488,11.966,6.278,19.43,12.089
                                  l1.922,1.492l2.393,0.421c8.754,1.569,15.238,4.686,20.471,8.919c7.798,6.323,13.05,15.656,16.361,27.232
                                  c3.3,11.53,4.502,25.05,4.49,38.486c0.004,11.316-0.823,22.569-1.776,32.621c-0.954,10.061-2.025,18.849-2.499,25.702l-0.004,0.007
                                  c-0.084,1.218-0.191,2.266-0.314,3.446l-0.87,8.352l8.12,2.136c1.037,0.275,1.856,0.72,2.373,1.332
                                  c0.49,0.636,1.374,1.738,1.435,5.735c0,2.442-0.437,5.887-1.734,10.427c-4.038,14.248-7.656,22.378-10.729,26.612
                                  c-1.543,2.136-2.868,3.384-4.345,4.425c-1.478,1.026-3.232,1.876-5.681,2.756l-5.358,1.914l-0.992,5.604
                                  c-1.167,6.606-2.572,11.369-4.054,15.105c-2.236,5.589-4.636,9.049-7.728,13.62c-3.063,4.509-6.753,10.121-9.635,18.168
                                  l-0.582,1.608v1.714c0,15.679,0,27.109,0,36.258c-0.011,5.719,2.128,10.895,5.049,15.006c4.433,6.209,10.523,10.733,17.142,14.691
                                  c6.634,3.92,13.902,7.15,20.87,9.861l7.097-18.266c-8.41-3.246-17.011-7.358-22.822-11.622c-2.909-2.105-5.072-4.234-6.263-5.949
                                  c-1.214-1.761-1.462-2.832-1.474-3.721c0-8.743,0-19.675,0-34.305c1.264-3.193,2.584-5.796,4.078-8.215
                                  c2.526-4.15,5.89-8.344,9.267-14.653c2.802-5.26,5.302-11.882,7.234-20.548c1.7-0.827,3.396-1.784,5.05-2.94
                                  c5.068-3.499,9.355-8.598,12.862-15.266c3.545-6.699,6.604-15.098,9.865-26.474c1.677-5.91,2.48-11.094,2.484-15.809
                                  c0.057-7.579-2.312-14.148-6.232-18.582c-1.366-1.569-2.844-2.756-4.33-3.782c0.494-5.834,1.386-13.574,2.232-22.5
                                  c0.98-10.358,1.864-22.202,1.864-34.467c-0.038-19.408-2.106-39.902-10.316-57.587c-4.115-8.82-9.888-16.934-17.769-23.342
                                  c-7.262-5.918-16.33-10.16-26.849-12.395c-7.139-5.474-14.052-10.267-22.669-13.597c-9.302-3.605-20.04-5.274-34.222-5.266
                                  c-4.478,0-9.32,0.16-14.622,0.482C225.025,3.1,212.902,4.9,201.2,4.869c-8.169-0.008-16.223-0.789-25.559-3.446L170.638,0
                                  l-3.985,3.338c-12.26,10.412-18.841,25.93-22.868,43.171c-3.977,17.318-5.267,36.786-5.278,56.087
                                  c0.004,25.188,2.255,50.069,4.168,68.742c-1.458,0.949-2.909,2.044-4.284,3.506c-4.226,4.426-6.874,11.27-6.802,19.209
                                  c0.003,4.716,0.808,9.915,2.492,15.825c4.356,15.151,8.295,25.08,13.624,32.614c2.657,3.744,5.742,6.806,9.095,9.126
                                  c1.646,1.148,3.33,2.098,5.022,2.924c3.035,12.969,8.146,22.37,12.528,29.176c2.466,3.851,4.643,6.913,5.991,9.202
                                  c1.29,2.144,1.673,3.369,1.75,3.928c0,15.228,0,26.451,0,35.431c0.003,0.713-0.276,1.968-1.792,3.982
                                  c-2.196,2.978-6.99,6.775-12.735,9.991c-5.734,3.269-12.36,6.102-18.16,8.146c-15.614,5.528-45.238,16.315-71.467,37.315
                                  c-13.114,10.511-25.426,23.664-34.478,40.094c-9.057,16.414-14.742,36.104-14.723,58.988c0,3.973,0.169,8.054,0.517,12.226
                                  l0.751,8.98h320.684v-19.599H48.404C48.396,491.874,48.335,491.314,48.335,490.794z" />
            <path class="st0" d="M412.708,361.088c-38.968,0-70.556,31.588-70.556,70.556c0,38.968,31.588,70.556,70.556,70.556
                                  c38.968,0,70.556-31.588,70.556-70.556C483.264,392.676,451.676,361.088,412.708,361.088z M451.906,441.444h-29.398v29.398h-19.599
                                  v-29.398H373.51v-19.599h29.398v-29.399h19.599v29.399h29.398V441.444z" />
        </g>
    </symbol>



    {{-- SIDE MENU --}}
    <symbol id="lotes" viewBox="0 0 24 24" fill="none">
        <path
            d="M4.72848 16.1369C3.18295 14.5914 2.41018 13.8186 2.12264 12.816C1.83509 11.8134 2.08083 10.7485 2.57231 8.61875L2.85574 7.39057C3.26922 5.59881 3.47597 4.70292 4.08944 4.08944C4.70292 3.47597 5.5988 3.26922 7.39057 2.85574L8.61875 2.57231C10.7485 2.08083 11.8134 1.83509 12.816 2.12264C13.8186 2.41018 14.5914 3.18295 16.1369 4.72848L17.9665 6.55812C20.6555 9.24711 22 10.5916 22 12.2623C22 13.933 20.6555 15.2775 17.9665 17.9665C15.2775 20.6555 13.933 22 12.2623 22C10.5916 22 9.24711 20.6555 6.55812 17.9665L4.72848 16.1369Z"
            stroke="#fff" stroke-width="1.5" />
        <path
            d="M15.3893 15.3891C15.9751 14.8033 16.0542 13.9327 15.5661 13.4445C15.0779 12.9564 14.2073 13.0355 13.6215 13.6213C13.0358 14.2071 12.1652 14.2863 11.677 13.7981C11.1888 13.3099 11.268 12.4393 11.8538 11.8536M15.3893 15.3891L15.7429 15.7426M15.3893 15.3891C14.9883 15.7901 14.4539 15.9537 14 15.8604M11.5002 11.5L11.8538 11.8536M11.8538 11.8536C12.185 11.5223 12.6073 11.3531 13 11.3568"
            stroke="#fff" stroke-width="1.5" stroke-linecap="round" />
        <circle cx="8.60724" cy="8.87891" r="2" transform="rotate(-45 8.60724 8.87891)" stroke="#fff"
            stroke-width="1.5" />
    </symbol>

    <symbol id="contratos" viewBox="0 0 1024 1024" class="icon" version="1.1" xmlns="http://www.w3.org/2000/svg">
        <path d="M182.52 146.2h585.14v402.28h73.15V73.06H109.38v877.71h402.28v-73.14H182.52z" fill="#fff" />
        <path
            d="M255.67 219.34h438.86v73.14H255.67zM255.67 365.63h365.71v73.14H255.67zM255.67 511.91H475.1v73.14H255.67zM731.02 585.06c-100.99 0-182.86 81.87-182.86 182.86s81.87 182.86 182.86 182.86 182.86-81.87 182.86-182.86-81.87-182.86-182.86-182.86z m0 292.57c-60.5 0-109.71-49.22-109.71-109.71 0-60.5 49.22-109.71 109.71-109.71 60.5 0 109.71 49.22 109.71 109.71 0 60.49-49.22 109.71-109.71 109.71z"
            fill="#fff" />
        <path d="M717.88 777.65l-42.55-38.13-36.61 40.86 84.02 75.27 102.98-118.47-41.39-36z" fill="#fff" />7
    </symbol>

    <symbol id="garantias" viewBox="0 0 24 24" xmlns="http://www.w3.org/2000/svg">
        <path
            d="M1.149,12.525A1,1,0,0,0,2,13H22a1,1,0,0,0,.895-1.447l-4-8A1,1,0,0,0,18,3H6a1,1,0,0,0-.895.553l-4,8A1,1,0,0,0,1.149,12.525ZM6.618,5H17.382l3,6H3.618ZM23,16a1,1,0,0,1-1,1H2a1,1,0,0,1,0-2H22A1,1,0,0,1,23,16Zm0,4a1,1,0,0,1-1,1H2a1,1,0,0,1,0-2H22A1,1,0,0,1,23,20Z" />
    </symbol>

    <symbol id="garantias" viewBox="0 0 1024 1024" class="icon" version="1.1" xmlns="http://www.w3.org/2000/svg">
        <path d="M182.52 146.2h585.14v402.28h73.15V73.06H109.38v877.71h402.28v-73.14H182.52z" fill="#fff" />
        <path
            d="M255.67 219.34h438.86v73.14H255.67zM255.67 365.63h365.71v73.14H255.67zM255.67 511.91H475.1v73.14H255.67zM731.02 585.06c-100.99 0-182.86 81.87-182.86 182.86s81.87 182.86 182.86 182.86 182.86-81.87 182.86-182.86-81.87-182.86-182.86-182.86z m0 292.57c-60.5 0-109.71-49.22-109.71-109.71 0-60.5 49.22-109.71 109.71-109.71 60.5 0 109.71 49.22 109.71 109.71 0 60.49-49.22 109.71-109.71 109.71z"
            fill="#fff" />
        <path d="M717.88 777.65l-42.55-38.13-36.61 40.86 84.02 75.27 102.98-118.47-41.39-36z" fill="#fff" />7
    </symbol>

    <symbol id="adquirentes" version="1.1" id="Capa_1" xmlns="http://www.w3.org/2000/svg"
        xmlns:xlink="http://www.w3.org/1999/xlink" viewBox="0 0 31.662 31.662" xml:space="preserve">
        <g>
            <g>
                <path d="M13.193,13.308h4.496c0.23-1.27,0.906-2.364,1.863-3.159c0.004,0,0.009,0,0.015,0c0.797-0.027,1.836-0.237,2.821-0.966
                          c0.121-0.089,0.238-0.185,0.351-0.284c1.412-1.252,2.187-3.332,2.292-6.192c0.025-0.758-0.564-1.396-1.32-1.425
                          c-0.826-0.042-1.396,0.562-1.425,1.322c-0.084,2.161-0.602,3.664-1.506,4.349c-0.196,0.151-0.405,0.254-0.606,0.323
                          c-0.006,0.002-0.015,0.003-0.021,0.005c-0.595-0.568-1.418-0.845-1.974-0.845h-3.398h-3.397c-1.246,0-2.237,1.251-2.259,2.624
                          C11.201,9.567,12.811,11.246,13.193,13.308z" />
                <ellipse cx="14.78" cy="3.195" rx="3.261" ry="3.195" />
                <path d="M14.359,21.546c0-2.479-1.068-3.526-2.55-3.526h-0.081H8.373c1.854-0.271,3.275-1.834,3.275-3.728
                          c0-2.08-1.72-3.768-3.847-3.768c-2.123,0-3.844,1.688-3.844,3.768c0,1.894,1.421,3.456,3.276,3.728H3.877H3.795
                          c-1.484,0-2.688,1.588-2.688,3.229v5.02h13.252V21.546z" />
                <path d="M19.101,14.292c0,1.894,1.422,3.456,3.274,3.728h-3.22h-0.219c-1.485,0-2.618,1.588-2.618,3.229v5.02h13.15v-4.72
                          c0-2.45-1.029-3.481-2.481-3.506c-0.021,0-0.019-0.021-0.037-0.021h-3.438c1.855-0.271,3.277-1.834,3.277-3.729
                            c0-2.08-1.722-3.768-3.846-3.768C20.821,10.524,19.101,12.212,19.101,14.292z" />
                <rect x="0.029" y="28.423" width="31.604" height="3.239" />
            </g>
        </g>
    </symbol>

    <symbol id="comitentes" version="1.1" id="_x32_" viewBox="0 0 282.931 282.931" xml:space="preserve"
        fill="#ffffff" stroke="#ffffff">
        <g>
            <g>
                <path d="M16.154,154.083c0.125-1.427,0.041-2.88,0.041-4.316c0.005-14.77-0.041-29.544,0.084-44.311
                          c0.01-1.27,1.112-2.526,1.706-3.791c0.779,1.295,1.757,2.511,2.277,3.905c0.353,0.947,0.074,2.138,0.074,3.22
                          c0,43.77-0.013,87.531,0.005,131.304c0,7.708,3.593,12.212,9.717,12.339c6.489,0.127,10.135-4.266,10.161-12.431
                          c0.043-12.608,0.01-25.212,0.005-37.82c0-12.07-0.079-24.141,0.094-36.206c0.021-1.463,1.384-2.915,2.128-4.377
                          c0.635,0.254,1.262,0.508,1.896,0.771c0,2.133,0,4.266,0,6.398c0,24.13,0.015,48.266-0.016,72.401
                          c-0.005,4.51,1.341,8.79,5.741,9.974c3.224,0.873,7.977,0.68,10.354-1.188c2.453-1.935,3.981-6.459,3.999-9.861
                          c0.249-44.306,0.16-88.611,0.15-132.916c0-0.716-0.272-1.523-0.031-2.143c0.447-1.163,1.173-2.219,1.788-3.321
                          c0.681,1.013,1.767,1.955,1.955,3.057c0.333,1.925,0.125,3.945,0.125,5.921c-0.005,13.688-0.061,27.378-0.005,41.065
                          c0.028,6.516,2.902,9.983,8.018,10.039c5.258,0.066,8.033-3.255,8.046-9.82c0.025-21.795,0.056-43.587-0.018-65.379
                          c-0.035-10.796-6.269-16.95-17.194-17.004c-16.392-0.084-32.776-0.073-49.165-0.025C6.28,69.603,0.098,75.796,0.065,87.549
                          c-0.041,16.389-0.016,32.78-0.01,49.17c0,5.761-0.165,11.534,0.079,17.288c0.198,4.723,3.593,7.795,7.978,7.805
                          C12.546,161.816,15.753,158.774,16.154,154.083z" />
                <path d="M58.383,46.684c0.066-8.97-7.071-16.199-16-16.188c-8.948,0.005-16.25,7.259-16.187,16.084
                          c0.056,8.63,7.17,15.75,15.828,15.844C51.19,62.517,58.314,55.664,58.383,46.684z" />
                <path d="M99.71,87.543c-0.041,16.389-0.01,32.781-0.01,49.17c0,5.761-0.165,11.529,0.079,17.287
                          c0.203,4.723,3.593,7.795,7.978,7.806c4.441,0.01,7.647-3.026,8.049-7.724c0.125-1.427,0.041-2.88,0.041-4.316
                          c0.005-14.77-0.041-29.544,0.084-44.311c0.01-1.27,1.106-2.526,1.706-3.791c0.779,1.295,1.757,2.511,2.277,3.905
                          c0.353,0.947,0.066,2.138,0.066,3.22c0,43.77-0.01,87.531,0.005,131.304c0,7.708,3.595,12.212,9.719,12.339
                          c6.49,0.127,10.135-4.266,10.161-12.431c0.041-12.608,0.005-25.212,0.005-37.82c0-12.07-0.079-24.141,0.094-36.206
                          c0.021-1.463,1.384-2.915,2.128-4.377c0.632,0.254,1.262,0.508,1.896,0.771c0,2.133,0,4.266,0,6.398
                          c0,24.13,0.015,48.266-0.015,72.401c-0.005,4.51,1.341,8.79,5.743,9.974c3.225,0.873,7.978,0.68,10.349-1.188
                          c2.458-1.935,3.986-6.459,4.002-9.861c0.249-44.306,0.162-88.611,0.152-132.916c0-0.716-0.274-1.523-0.036-2.143
                          c0.452-1.163,1.179-2.219,1.793-3.321c0.681,1.013,1.767,1.955,1.955,3.057c0.33,1.925,0.122,3.945,0.122,5.921
                          c-0.006,13.688-0.062,27.378-0.006,41.065c0.025,6.516,2.905,9.983,8.019,10.039c5.261,0.066,8.033-3.255,8.043-9.82
                          c0.031-21.795,0.057-43.587-0.015-65.379c-0.036-10.796-6.271-16.95-17.194-17.004c-16.392-0.084-32.775-0.073-49.165-0.025
                          C105.925,69.598,99.738,75.791,99.71,87.543z" />
                <path d="M158.033,46.684c0.066-8.97-7.073-16.199-16-16.188c-8.95,0.005-16.25,7.259-16.186,16.084
                          c0.056,8.63,7.17,15.75,15.828,15.844C150.842,62.517,157.967,55.664,158.033,46.684z" />
                <path d="M265.691,69.588c-16.392-0.084-32.773-0.074-49.165-0.025c-11.806,0.035-17.991,6.228-18.021,17.981
                          c-0.041,16.389-0.01,32.781-0.01,49.17c0,5.761-0.168,11.529,0.076,17.287c0.203,4.723,3.595,7.795,7.978,7.806
                          c4.442,0.01,7.647-3.026,8.048-7.724c0.127-1.427,0.041-2.88,0.041-4.316c0.005-14.77-0.041-29.544,0.086-44.311
                          c0.011-1.27,1.107-2.526,1.707-3.791c0.776,1.295,1.757,2.511,2.274,3.905c0.355,0.947,0.066,2.138,0.066,3.22
                         c0,43.77-0.011,87.531,0.005,131.304c0,7.708,3.595,12.212,9.719,12.339c6.49,0.127,10.136-4.266,10.161-12.431
                          c0.041-12.608,0.005-25.212,0.005-37.82c0-12.07-0.076-24.141,0.097-36.206c0.021-1.463,1.382-2.915,2.123-4.377
                          c0.635,0.254,1.265,0.508,1.899,0.771c0,2.133,0,4.266,0,6.398c0,24.13,0.015,48.266-0.016,72.401
                          c-0.005,4.51,1.341,8.79,5.743,9.974c3.225,0.873,7.973,0.68,10.349-1.188c2.458-1.935,3.986-6.459,4.002-9.861
                          c0.248-44.306,0.162-88.611,0.152-132.916c0-0.716-0.274-1.523-0.036-2.143c0.452-1.163,1.179-2.219,1.793-3.321
                          c0.681,1.013,1.767,1.955,1.955,3.057c0.33,1.925,0.122,3.945,0.122,5.921c-0.006,13.688-0.062,27.378-0.006,41.065
                          c0.025,6.516,2.905,9.983,8.019,10.039c5.261,0.066,8.033-3.255,8.044-9.82c0.03-21.795,0.056-43.587-0.016-65.379
                          C282.855,75.796,276.619,69.641,265.691,69.588z" />
                <path d="M256.831,46.684c0.065-8.97-7.074-16.199-16.001-16.188c-8.947,0.005-16.25,7.259-16.184,16.084
                           c0.056,8.63,7.17,15.75,15.828,15.844C249.639,62.517,256.764,55.664,256.831,46.684z" />
            </g>
        </g>
    </symbol>

    <symbol version="1.1" id="subastas" viewBox="0 0 482 482" xml:space="preserve" fill="#ffffff"
        stroke="#ffffff">
        <g id="SVGRepo_bgCarrier" stroke-width="0"></g>
        <g id="SVGRepo_tracerCarrier" stroke-linecap="round" stroke-linejoin="round"></g>
        <g id="SVGRepo_iconCarrier">
            <style type="text/css">
                .st0 {
                    fill: #ffffff;
                }
            </style>
            <g>
                <path class="st0"
                    d="M215.402,437.214H26.364C11.797,437.214,0,449.011,0,463.571v29.428h241.749v-29.428 C241.749,449.011,229.953,437.214,215.402,437.214z">
                </path>
                <path class="st0"
                    d="M204.557,406.227c0-14.559-11.797-26.356-26.356-26.356H63.549c-14.558,0-26.356,11.797-26.356,26.356v17.034 h167.364V406.227z">
                </path>
                <path class="st0"
                    d="M129.388,311.01c51.39,44.821,74.125,55.052,89.5,41.664c15.376-13.388-5.583-24.722,10.812-43.508 l-112.118-97.786c-16.385,18.786-30.465-0.429-41.639,16.622C64.762,245.053,77.998,266.196,129.388,311.01z">
                </path>
                <path class="st0"
                    d="M354.76,165.758c16.395-18.794,30.465,0.438,41.647-16.622c11.174-17.052-2.063-38.187-53.453-83.009 c-51.398-44.814-74.124-55.053-89.508-41.664c-15.376,13.38,5.591,24.714-10.803,43.508L354.76,165.758z">
                </path>
                <polygon class="st0" points="344.175,177.9 232.058,80.106 128.167,199.246 240.284,297.032 ">
                </polygon>
                <path class="st0"
                    d="M498.723,366.146c-10.223-8.925-23.812-11.502-35.972-8.092c7.343-20.419-16.2-28.646-43.264-49.587 c-33.816-26.162-90.662-72.399-99.074-79.742l-33,37.85c8.412,7.317,61.958,57.368,92.465,87.302 c24.428,23.965,35.787,46.169,55.011,36.123c-1.726,12.504,2.686,25.623,12.908,34.541c16.125,14.07,40.595,12.386,54.666-3.739 C516.516,404.678,514.848,380.209,498.723,366.146z">
                </path>
            </g>
        </g>
    </symbol>

    <symbol id="personal" viewBox="0 0 20 26" enable-background="new 0 0 24 24" xml:space="preserve"
        stroke="#fff">
        <g id="SVGRepo_bgCarrier" stroke-width="0" />
        <g id="SVGRepo_tracerCarrier" stroke-linecap="round" stroke-linejoin="round" />
        <g id="SVGRepo_iconCarrier">
            <g id="user-admin">
                <path
                    d="M22.3,16.7l1.4-1.4L20,11.6l-5.8,5.8c-0.5-0.3-1.1-0.4-1.7-0.4C10.6,17,9,18.6,9,20.5s1.6,3.5,3.5,3.5s3.5-1.6,3.5-3.5 c0-0.6-0.2-1.2-0.4-1.7l1.9-1.9l2.3,2.3l1.4-1.4l-2.3-2.3l1.1-1.1L22.3,16.7z M12.5,22c-0.8,0-1.5-0.7-1.5-1.5s0.7-1.5,1.5-1.5 s1.5,0.7,1.5,1.5S13.3,22,12.5,22z" />
                <path
                    d="M2,19c0-3.9,3.1-7,7-7c2,0,3.9,0.9,5.3,2.4l1.5-1.3c-0.9-1-1.9-1.8-3.1-2.3C14.1,9.7,15,7.9,15,6c0-3.3-2.7-6-6-6 S3,2.7,3,6c0,1.9,0.9,3.7,2.4,4.8C2.2,12.2,0,15.3,0,19v5h8v-2H2V19z M5,6c0-2.2,1.8-4,4-4s4,1.8,4,4s-1.8,4-4,4S5,8.2,5,6z" />
            </g>
        </g>

    </symbol>

    <symbol id="dashboard" viewBox="0 0 1920 1920" xmlns="http://www.w3.org/2000/svg" stroke="#fff">
        <g id="SVGRepo_bgCarrier" stroke-width="0" />
        <g id="SVGRepo_tracerCarrier" stroke-linecap="round" stroke-linejoin="round" />
        <g id="SVGRepo_iconCarrier">
            <path
                d="M833.935 1063.327c28.913 170.315 64.038 348.198 83.464 384.79 27.557 51.84 92.047 71.944 144 44.387 51.84-27.558 71.717-92.273 44.16-144.113-19.426-36.593-146.937-165.46-271.624-285.064Zm-43.821-196.405c61.553 56.923 370.899 344.81 415.285 428.612 56.696 106.842 15.811 239.887-91.144 296.697-32.64 17.28-67.765 25.411-102.325 25.411-78.72 0-154.955-42.353-194.371-116.555-44.386-83.802-109.102-501.346-121.638-584.245-3.501-23.717 8.245-47.21 29.365-58.277 21.346-11.294 47.096-8.02 64.828 8.357ZM960.045 281.99c529.355 0 960 430.757 960 960 0 77.139-8.922 153.148-26.654 225.882l-10.39 43.144h-524.386v-112.942h434.258c9.487-50.71 14.231-103.115 14.231-156.084 0-467.125-380.047-847.06-847.059-847.06-467.125 0-847.059 379.935-847.059 847.06 0 52.97 4.744 105.374 14.118 156.084h487.454v112.942H36.977l-10.39-43.144C8.966 1395.137.044 1319.128.044 1241.99c0-529.243 430.645-960 960-960Zm542.547 390.686 79.85 79.85-112.716 112.715-79.85-79.85 112.716-112.715Zm-1085.184 0L530.123 785.39l-79.85 79.85L337.56 752.524l79.849-79.85Zm599.063-201.363v159.473H903.529V471.312h112.942Z"
                fill-rule="evenodd" />
        </g>
    </symbol>



    {{-- DEFAULT IMG --}}
    <symbol id="default-img-input" viewBox="-49 141 512 512" aria-hidden="true" stroke="#555">
        <path
            d="M388 191H26c-35.841 0-65 29.159-65 65v281.995q0 .623.031 1.246C-38.302 574.509-9.425 603 26 603h362c35.841 0 65-29.159 65-65V256c0-35.841-29.159-65-65-65M26 241h362c8.271 0 15 6.729 15 15v282a14.9 14.9 0 0 1-1.386 6.258l-75.936-75.936c-9.764-9.763-25.592-9.763-35.355 0L257 501.645 139.678 384.322c-9.764-9.763-25.592-9.763-35.355 0L11 477.645V256c0-8.271 6.729-15 15-15"
            fill="#fff">
        </path>
        <path d="M293 401c27.57 0 50-22.43 50-50s-22.43-50-50-50-50 22.43-50 50 22.43 50 50 50" fill="#fffec8 "></path>
    </symbol>



    <symbol viewBox="0 0 24 24" fill="none" id="error-icon" xmlns="http://www.w3.org/2000/svg">
        <g id="SVGRepo_bgCarrier" stroke-width="0" />
        <g id="SVGRepo_tracerCarrier" stroke-linecap="round" stroke-linejoin="round" />
        <g id="SVGRepo_iconCarrier">
            <path
                d="M6.30928 9C8.59494 5 9.96832 3 12 3C14.3107 3 15.7699 5.58716 18.6883 10.7615L19.0519 11.4063C21.4771 15.7061 22.6897 17.856 21.5937 19.428C20.4978 21 17.7864 21 12.3637 21H11.6363C6.21356 21 3.50217 21 2.40626 19.428C1.45498 18.0635 2.24306 16.2635 4.05373 13"
                stroke="#e70d0d" stroke-width="1.5" stroke-linecap="round" />
            <path d="M12 8V13" stroke="#e70d0d" stroke-width="1.5" stroke-linecap="round" />
            <circle cx="12" cy="16" r="1" fill="#e70d0d" />
        </g>
    </symbol>



    {{-- HISTORY --}}
    <symbol id="history" viewBox="0 0 24 24" fill="none" xmlns="http://www.w3.org/2000/svg">
        <path d="M12 8V12L14.5 14.5" stroke="#fff" stroke-width="1.5" stroke-linecap="round"
            stroke-linejoin="round" />
        <path
            d="M5.60423 5.60423L5.0739 5.0739V5.0739L5.60423 5.60423ZM4.33785 6.87061L3.58786 6.87438C3.58992 7.28564 3.92281 7.61853 4.33408 7.6206L4.33785 6.87061ZM6.87963 7.63339C7.29384 7.63547 7.63131 7.30138 7.63339 6.88717C7.63547 6.47296 7.30138 6.13549 6.88717 6.13341L6.87963 7.63339ZM5.07505 4.32129C5.07296 3.90708 4.7355 3.57298 4.32129 3.57506C3.90708 3.57715 3.57298 3.91462 3.57507 4.32882L5.07505 4.32129ZM3.75 12C3.75 11.5858 3.41421 11.25 3 11.25C2.58579 11.25 2.25 11.5858 2.25 12H3.75ZM16.8755 20.4452C17.2341 20.2378 17.3566 19.779 17.1492 19.4204C16.9418 19.0619 16.483 18.9393 16.1245 19.1468L16.8755 20.4452ZM19.1468 16.1245C18.9393 16.483 19.0619 16.9418 19.4204 17.1492C19.779 17.3566 20.2378 17.2341 20.4452 16.8755L19.1468 16.1245ZM5.14033 5.07126C4.84598 5.36269 4.84361 5.83756 5.13505 6.13191C5.42648 6.42626 5.90134 6.42862 6.19569 6.13719L5.14033 5.07126ZM18.8623 5.13786C15.0421 1.31766 8.86882 1.27898 5.0739 5.0739L6.13456 6.13456C9.33366 2.93545 14.5572 2.95404 17.8017 6.19852L18.8623 5.13786ZM5.0739 5.0739L3.80752 6.34028L4.86818 7.40094L6.13456 6.13456L5.0739 5.0739ZM4.33408 7.6206L6.87963 7.63339L6.88717 6.13341L4.34162 6.12062L4.33408 7.6206ZM5.08784 6.86684L5.07505 4.32129L3.57507 4.32882L3.58786 6.87438L5.08784 6.86684ZM12 3.75C16.5563 3.75 20.25 7.44365 20.25 12H21.75C21.75 6.61522 17.3848 2.25 12 2.25V3.75ZM12 20.25C7.44365 20.25 3.75 16.5563 3.75 12H2.25C2.25 17.3848 6.61522 21.75 12 21.75V20.25ZM16.1245 19.1468C14.9118 19.8483 13.5039 20.25 12 20.25V21.75C13.7747 21.75 15.4407 21.2752 16.8755 20.4452L16.1245 19.1468ZM20.25 12C20.25 13.5039 19.8483 14.9118 19.1468 16.1245L20.4452 16.8755C21.2752 15.4407 21.75 13.7747 21.75 12H20.25ZM6.19569 6.13719C7.68707 4.66059 9.73646 3.75 12 3.75V2.25C9.32542 2.25 6.90113 3.32791 5.14033 5.07126L6.19569 6.13719Z"
            fill="#fff" />
    </symbol>


    <symbol id="orderdesc" viewBox="0 0 24 24" fill="none" xmlns="http://www.w3.org/2000/svg">
        <path d="M7 3V21M7 21L3 17M7 21L11 17M14 3H21M14 9H19M14 15H17M14 21H15" stroke="#000000" stroke-width="2"
            stroke-linecap="round" stroke-linejoin="round" />
    </symbol>

    <symbol id="orderasc" viewBox="0 0 24 24" fill="none" xmlns="http://www.w3.org/2000/svg">
        <path d="M7 3V21M7 3L11 7M7 3L3 7M14 3H15M14 9H17M14 15H19M14 21H21" stroke="#000000" stroke-width="2"
            stroke-linecap="round" stroke-linejoin="round" />
    </symbol>

    <symbol id="cart" viewBox="0 0 24 24" fill="none" xmlns="http://www.w3.org/2000/svg">
        <path
            d="M6.29977 5H21L19 12H7.37671M20 16H8L6 3H3M9 20C9 20.5523 8.55228 21 8 21C7.44772 21 7 20.5523 7 20C7 19.4477 7.44772 19 8 19C8.55228 19 9 19.4477 9 20ZM20 20C20 20.5523 19.5523 21 19 21C18.4477 21 18 20.5523 18 20C18 19.4477 18.4477 19 19 19C19.5523 19 20 19.4477 20 20Z"
            stroke="#000000" stroke-width="2" stroke-linecap="round" stroke-linejoin="round" />
    </symbol>


    <symbol id="audit" fill="#fff" version="1.1" id="Capa_1" xmlns="http://www.w3.org/2000/svg"
        xmlns:xlink="http://www.w3.org/1999/xlink" width="24px" height="24px" viewBox="0 0 306.213 306.213"
        xml:space="preserve">
        <g>
            <g>
                <path d="M250.709,193.022l-55.805-2.931l-30.587,51.739c-3.081,5.21-6.985,8.083-10.999,8.083c-4.062,0-7.969-2.94-10.999-8.279
   l-29.352-51.688l-57.469,3.076c-15.366,0.803-33.536,6.954-41.363,14.002C6.208,214.159,0,231.91,0,247.439v17.232
   c0,16.078,13.087,29.163,29.163,29.163H277.05c16.078,0,29.163-13.085,29.163-29.163v-17.232c0-15.529-6.208-33.28-14.136-40.415
   C284.237,199.982,266.072,193.83,250.709,193.022z" />
                <path d="M147.763,234.013c2.338,5.375,6.468,5.53,9.215,0.357l9.344-17.591l-10.791-11.526l8.176-8.492l-10.604-6.275
   l-10.382,5.965l7.917,8.632l-10.786,10.807L147.763,234.013z" />
                <path
                    d="M154.427,12.378c-45.319,0-82.187,36.869-82.187,82.187c0,45.319,36.868,82.188,82.187,82.188
   c25.818,0,48.861-11.993,63.945-30.665l58.274,41.658c7.146,5.105,16.119,2.879,20.05-4.981l6.503-13.033
   c3.92-7.86,0.321-16.415-8.036-19.107l-63.458-28.337c3.122-8.681,4.914-17.986,4.914-27.721
   C236.614,49.247,199.746,12.378,154.427,12.378z M154.427,155.543c-33.621,0-60.978-27.355-60.978-60.978
   c0-33.621,27.356-60.978,60.978-60.978c33.622,0,60.978,27.356,60.978,60.978C215.404,128.188,188.049,155.543,154.427,155.543z" />
                <path d="M154.427,42.438c-28.744,0-52.128,23.384-52.128,52.128c0,1.463,1.188,2.651,2.651,2.651s2.651-1.188,2.651-2.651
   c0-25.818,21.002-46.825,46.826-46.825c1.463,0,2.651-1.188,2.651-2.651S155.89,42.438,154.427,42.438z" />
            </g>
        </g>
    </symbol>

</svg>
